<svg width="28" height="22" viewBox="0 0 28 22" fill="none" xmlns="http://www.w3.org/2000/svg">
<path d="M0.00399995 4.303C0.0547569 3.14469 0.550632 2.05067 1.38825 1.24901C2.22586 0.447347 3.34058 -8.09369e-05 4.5 1.09818e-08H23.5C24.6594 -8.09369e-05 25.7741 0.447347 26.6118 1.24901C27.4494 2.05067 27.9452 3.14469 27.996 4.303L26.52 5.123L14 11.864L1.48 5.123L0.00399995 4.303ZM0 6.588V17.5C0 18.6935 0.474106 19.8381 1.31802 20.682C2.16193 21.5259 3.30653 22 4.5 22H23.5C24.6935 22 25.8381 21.5259 26.682 20.682C27.5259 19.8381 28 18.6935 28 17.5V6.588L27.474 6.881L14.474 13.881C14.3283 13.9594 14.1655 14.0005 14 14.0005C13.8345 14.0005 13.6717 13.9594 13.526 13.881L0.514 6.874L0 6.588Z" fill="#00264C"/>
</svg>
