<svg width="26" height="26" viewBox="0 0 26 26" fill="none" xmlns="http://www.w3.org/2000/svg">
<path d="M24.0508 6.02386C20.1676 -0.00246471 12.2154 -1.78804 6.06552 1.95051C0.0642511 5.68906 -1.86805 13.8358 2.01513 19.8435L2.33099 20.3271L1.0304 25.2002L5.89831 23.8982L6.38138 24.2144C8.4809 25.349 10.7662 26 13.0329 26C15.4669 26 17.9009 25.349 20.0004 24.047C26.0016 20.1411 27.7853 12.1618 24.0508 5.98666V6.02386ZM20.6507 18.5601C20.0004 19.5273 19.1829 20.1783 18.0495 20.3457C17.3992 20.3457 16.5817 20.6619 13.3488 19.3785C10.599 18.0765 8.31368 15.9561 6.69724 13.5196C5.73109 12.385 5.22943 10.9156 5.0808 9.44621C5.0808 8.14423 5.56387 7.00965 6.38138 6.19126C6.69724 5.87506 7.03167 5.70766 7.34753 5.70766H8.16504C8.4809 5.70766 8.81533 5.70766 8.98255 6.35865C9.29841 7.17704 10.1159 9.13002 10.1159 9.29742C10.2831 9.46481 10.2088 10.711 9.46563 11.4178C9.05687 11.8828 8.98255 11.9014 9.14977 12.2362C9.80006 13.2034 10.6176 14.1892 11.4165 15.0075C12.3827 15.8259 13.3674 16.4769 14.5008 16.9605C14.8166 17.1279 15.151 17.1279 15.3183 16.7931C15.4855 16.4769 16.2844 15.6585 16.6188 15.3237C16.9347 15.0075 17.1019 15.0075 17.4364 15.1563L20.0375 16.4583C20.3534 16.6257 20.6878 16.7745 20.855 16.9419C21.0223 17.4255 21.0223 18.0765 20.6878 18.5601H20.6507Z" fill="#00264C"/>
</svg>
