<svg width="60" height="60" viewBox="0 0 60 60" fill="none" xmlns="http://www.w3.org/2000/svg">
<path fill-rule="evenodd" clip-rule="evenodd" d="M3.27806 0H11.1126L15.62 18.3326H32.7806C34.0847 18.3326 35.3354 18.8593 36.2575 19.797C37.1797 20.7346 37.6977 22.0063 37.6977 23.3324V28.3322H39.3367C40.6408 28.3322 41.8915 28.8589 42.8136 29.7966C43.7358 30.7342 44.2538 32.0059 44.2538 33.332V35.6885L54.2044 45.8064L57.6824 42.2716L60 44.6282L54.2044 50.5212L44.2538 40.4017V50.2829C45.3479 50.6761 46.27 51.4499 46.8572 52.4675C47.4444 53.4852 47.6589 54.6811 47.4627 55.844C47.2666 57.0069 46.6724 58.0618 45.7853 58.8224C44.8982 59.5829 43.7752 60 42.6148 60C41.4544 60 40.3314 59.5829 39.4443 58.8224C38.5572 58.0618 37.963 57.0069 37.7669 55.844C37.5707 54.6811 37.7852 53.4852 38.3724 52.4675C38.9596 51.4499 39.8817 50.6761 40.9758 50.2829V38.3317H32.0299C32.5294 39.9497 32.7825 41.6358 32.7806 43.3315C32.7806 52.5362 25.4427 59.9975 16.3903 59.9975C7.33794 59.9975 0 52.5362 0 43.3315C0 34.8386 6.24635 27.8305 14.3235 26.7972L8.5541 3.3332H3.27806V0ZM34.4196 28.3322V23.3324C34.4196 22.8904 34.247 22.4665 33.9396 22.1539C33.6322 21.8414 33.2153 21.6658 32.7806 21.6658H16.4395L17.6819 26.7156C19.718 26.8761 21.7062 27.4245 23.543 28.3322H34.4196ZM9.83418 43.3315C9.83418 41.5635 10.5249 39.8679 11.7544 38.6177C12.9839 37.3675 14.6515 36.6652 16.3903 36.6652C18.1291 36.6652 19.7967 37.3675 21.0262 38.6177C22.2557 39.8679 22.9464 41.5635 22.9464 43.3315C22.9464 45.0996 22.2557 46.7952 21.0262 48.0454C19.7967 49.2956 18.1291 49.9979 16.3903 49.9979C14.6515 49.9979 12.9839 49.2956 11.7544 48.0454C10.5249 46.7952 9.83418 45.0996 9.83418 43.3315ZM42.6148 53.3311C42.1801 53.3311 41.7632 53.5067 41.4558 53.8193C41.1485 54.1318 40.9758 54.5557 40.9758 54.9977C40.9758 55.4397 41.1485 55.8636 41.4558 56.1762C41.7632 56.4887 42.1801 56.6643 42.6148 56.6643C43.0495 56.6643 43.4664 56.4887 43.7738 56.1762C44.0812 55.8636 44.2538 55.4397 44.2538 54.9977C44.2538 54.5557 44.0812 54.1318 43.7738 53.8193C43.4664 53.5067 43.0495 53.3311 42.6148 53.3311Z" fill="#D4A55F"/>
</svg>
