<svg width="26" height="60" viewBox="0 0 26 60" fill="none" xmlns="http://www.w3.org/2000/svg">
<ellipse cx="12.6968" cy="4.82143" rx="4.76125" ry="4.82143" fill="#D4A55F"/>
<path d="M5.81934 32.6786H11.6386V49.0546C11.6386 50.6616 10.3359 51.9643 8.72899 51.9643C7.12203 51.9643 5.81934 50.6616 5.81934 49.0546V32.6786Z" fill="#D4A55F"/>
<path d="M13.7549 32.6786H19.5742V57.0904C19.5742 58.6973 18.2715 60 16.6645 60C15.0576 60 13.7549 58.6973 13.7549 57.0904V32.6786Z" fill="#D4A55F"/>
<rect x="5.81934" y="10.1786" width="13.7547" height="25.7143" fill="#D4A55F"/>
<path d="M2.11621 32.1428H5.29038V57.8772C5.29038 58.7537 4.57981 59.4643 3.70329 59.4643C2.82677 59.4643 2.11621 58.7537 2.11621 57.8772V32.1428Z" fill="#D4A55F"/>
<path d="M0 15.4689C0 12.5471 2.36854 10.1786 5.29027 10.1786V31.6406C5.29027 33.1015 4.10601 34.2857 2.64514 34.2857C1.18427 34.2857 0 33.1015 0 31.6406V15.4689Z" fill="#D4A55F"/>
<path d="M25.3931 15.4689C25.3931 12.5471 23.0245 10.1786 20.1028 10.1786V31.1049C20.1028 32.5657 21.2871 33.75 22.7479 33.75C24.2088 33.75 25.3931 32.5657 25.3931 31.1049V15.4689Z" fill="#D4A55F"/>
<path d="M25.3931 31.0714H20.1028V31.1048C20.1028 32.5657 21.2871 33.75 22.7479 33.75C24.2088 33.75 25.3931 32.5657 25.3931 31.1048V31.0714Z" fill="white"/>
<path d="M18.9868 10.1786H19.69C21.3469 10.1786 22.69 11.5217 22.69 13.1786V19.2857H18.9868V10.1786Z" fill="#D4A55F"/>
<path d="M2.70312 13.1786C2.70312 11.5217 4.04627 10.1786 5.70312 10.1786H6.93534V19.2857H2.70312V13.1786Z" fill="#D4A55F"/>
<path d="M11.9072 43.3187L5.61735 44.2501" stroke="white" stroke-width="2"/>
<path d="M12.1675 47.1428L5.45345 45.0988" stroke="white" stroke-width="2"/>
<line x1="20.103" y1="26.8214" x2="25.3933" y2="26.8214" stroke="white"/>
<path d="M20.103 27.3214L25.6578 30.2678" stroke="white"/>
</svg>
