<svg width="46" height="50" viewBox="0 0 46 50" fill="none" xmlns="http://www.w3.org/2000/svg">
<path d="M11.1945 0.0656247C9.45047 0.46875 8.26116 1.90312 8.25175 3.60937C8.24705 4.72031 8.60902 5.56406 9.42227 6.33281C10.1415 7.01719 10.903 7.3125 11.9231 7.3125C13.3757 7.3125 14.5603 6.59062 15.1949 5.32031C15.5099 4.68281 15.6086 4.2375 15.5804 3.51562C15.5616 3.01875 15.5334 2.86875 15.4159 2.52187C15.0069 1.34531 14.1466 0.520312 12.9338 0.140625C12.5107 0.00937462 11.6082 -0.0281253 11.1945 0.0656247Z" fill="#D4A55F"/>
<path d="M30.7265 1.87966C30.1812 1.95934 29.7675 2.17966 29.368 2.60153C29.1094 2.87341 28.8744 3.31403 28.8227 3.61403C28.7992 3.75934 28.7334 3.85309 28.5312 4.04528C27.7791 4.75309 27.3889 5.66716 27.3889 6.72653C27.3889 7.60778 27.6287 8.31091 28.1693 8.99528C28.6534 9.61403 29.3398 10.0593 30.1389 10.275C30.656 10.4109 31.4458 10.4109 31.9722 10.2703C33.2415 9.93747 34.1864 9.01872 34.5859 7.73434C34.6799 7.43434 34.6987 7.27966 34.6987 6.72653C34.6987 6.16872 34.6846 6.01872 34.5906 5.71872C34.3744 5.04372 33.9466 4.34997 33.5282 4.00778C33.3684 3.88122 33.3167 3.79684 33.2744 3.61872C33.0111 2.47966 31.8829 1.71091 30.7265 1.87966Z" fill="#D4A55F"/>
<path d="M8.65595 6.17811C7.8239 6.26717 6.26792 6.62342 5.44527 6.91405C4.03971 7.40155 3.03373 8.08592 2.70467 8.78436L2.56834 9.0703V17.2594V25.4437L1.8068 25.4625C1.06877 25.4766 1.03116 25.4812 0.814925 25.6078C0.673899 25.6922 0.561078 25.8047 0.499967 25.9219C0.40595 26.1047 0.40595 26.1797 0.415352 37.1625L0.429454 48.2203L0.565779 48.3937C0.739711 48.6234 0.965352 48.7172 1.28031 48.6937C1.57646 48.6703 1.83501 48.4922 1.95253 48.2391C2.02304 48.0844 2.02775 47.2172 2.02775 37.6547V27.2344H2.52133C3.01492 27.2344 3.01492 27.2344 3.21706 27.3984C3.81877 27.8719 4.71663 27.8672 5.33245 27.3844C5.56279 27.2016 5.74142 26.9437 5.85894 26.6203C5.95296 26.3719 5.95296 26.2172 5.95296 19.6078V12.8437H6.42304H6.89313V29.7516C6.89313 40.9875 6.91193 46.7344 6.94484 46.8703C7.08116 47.4609 7.58416 48.0797 8.13886 48.3328C9.37988 48.8906 10.7478 48.2531 11.1427 46.9266C11.2085 46.6969 11.2179 45.7828 11.2179 37.3734V28.0781H11.923H12.6282V37.35C12.6282 45.4172 12.6376 46.6547 12.6987 46.8891C12.9807 47.9766 14.0055 48.6656 15.1008 48.5109C15.9846 48.3891 16.7367 47.6672 16.9107 46.7812C16.9577 46.5469 16.9624 43.0547 16.9389 29.6625L16.9107 12.8437H17.3901H17.8696V19.6078V26.3672L17.9918 26.6531C18.1423 27.0187 18.3303 27.2484 18.6218 27.4453C19.6654 28.1391 21.0286 27.5484 21.2307 26.3156C21.2589 26.1609 21.2777 25.9312 21.2777 25.8047C21.2777 25.6031 21.4799 25.1016 22.7867 22.0781C23.6141 20.1562 24.5495 17.9812 24.8645 17.2406L25.438 15.8906H26.1807H26.9282L26.8953 16.0406C26.8624 16.2 24.526 25.9969 24.1923 27.375C23.8773 28.6687 21.9359 36.8109 21.903 36.9469L21.8795 37.0781H24.1641H26.4487V42.0797C26.4487 44.9062 26.4675 47.2172 26.4957 47.3859C26.585 48.0281 26.9987 48.5672 27.6145 48.8578C27.9013 48.9937 27.9718 49.0078 28.376 49.0078C28.7803 49.0078 28.8508 48.9937 29.1376 48.8578C29.556 48.6609 29.8333 48.3984 30.0495 47.9859L30.2329 47.6484L30.2564 42.375L30.2799 37.1016H31.2436H32.2072L32.2307 42.375L32.2542 47.6484L32.3765 47.9062C33.0769 49.3828 35.0842 49.3922 35.8269 47.9297L35.9679 47.6484L35.9914 42.375L36.0149 37.1016L38.3136 37.0875L40.6077 37.0781L40.5748 36.9469C40.556 36.8766 39.9918 34.5187 39.3196 31.7109C38.6521 28.8984 37.5286 24.2203 36.8329 21.3094C36.1371 18.3937 35.5683 15.9844 35.5683 15.9515C35.5683 15.9047 35.7329 15.8906 36.3158 15.8906H37.0679L37.1854 16.275C37.2466 16.4906 37.6226 17.7516 38.0128 19.0781C39.9072 25.4906 40.1893 26.4281 40.3021 26.625C40.4713 26.9156 40.7299 27.1547 41.0542 27.3094C41.294 27.4266 41.3786 27.4453 41.75 27.4453C42.1354 27.4453 42.206 27.4312 42.4927 27.2906C42.7042 27.1828 42.8782 27.0562 43.0286 26.8828L43.2542 26.625H43.6679H44.0769V37.3453V48.0656L44.1756 48.2672C44.3542 48.6375 44.8243 48.8062 45.2192 48.6375C45.4166 48.5578 45.6094 48.3281 45.6752 48.1031C45.741 47.8594 45.741 25.8281 45.6752 25.5844C45.6094 25.3594 45.4166 25.1297 45.2192 25.05C45.1111 25.0031 44.8196 24.9844 44.1709 24.9844C43.682 24.9844 43.2777 24.975 43.2777 24.9609C43.2777 24.9516 42.8406 23.4703 42.3094 21.6703C41.7782 19.8703 41.0777 17.5031 40.7534 16.4062C39.3431 11.6156 39.3525 11.6531 38.8495 11.1281C38.3607 10.6219 37.6179 10.1719 36.6777 9.82499C36.156 9.62811 35.1829 9.3703 34.5671 9.26249L34.1581 9.19217L33.9371 9.42655C33.1004 10.3219 31.8077 10.7906 30.5948 10.6453C29.7581 10.5422 28.9777 10.1859 28.3948 9.64217L28.1034 9.3703L27.7179 9.46873C26.303 9.82967 25.2312 10.3453 24.4743 11.0297C24.2957 11.1891 24.0418 11.4 23.9102 11.4984C23.7786 11.5969 23.6 11.7844 23.5154 11.9203C23.4307 12.0562 22.8995 13.2469 22.3307 14.5641L21.3013 16.9687L21.2777 12.9937L21.2542 9.02342L21.1273 8.76561C20.6055 7.70155 18.5277 6.72186 15.8953 6.28592C14.9927 6.13593 15.082 6.12186 14.7059 6.47342C14.1418 7.0078 13.5965 7.31717 12.8867 7.50467C12.3602 7.6453 11.4859 7.6453 10.9594 7.50467C10.2495 7.31717 9.69014 7.00311 9.12604 6.46873C8.84869 6.21092 8.77347 6.16405 8.65595 6.17811Z" fill="#D4A55F"/>
</svg>
