<svg width="53" height="50" viewBox="0 0 53 50" fill="none" xmlns="http://www.w3.org/2000/svg">
<path d="M13.3 21.4L15.95 18.75L13.3 16.1L15.95 13.45L21.25 18.75L15.95 24.05L13.3 21.4ZM6.24995 17.5H6.44995C9.42495 10.175 16.6 5.00001 25 5.00001C30.475 5.00001 35.4 7.20001 39.025 10.75C39.4 9.25001 40.15 7.50001 41.0499 5.85001C36.5574 2.06801 30.8725 -0.00406202 25 5.97848e-06C12.775 5.97848e-06 2.62495 8.75001 0.449951 20.35C1.84995 18.6 3.97495 17.5 6.24995 17.5ZM47.5 21.25C46.45 21.25 45.4499 21.025 44.5249 20.7C44.8249 22.075 45 23.525 45 25C45 36.05 36.0499 45 25 45C16.6 45 9.42495 39.825 6.44995 32.5H6.24995C4.99995 32.5 3.64995 32.15 2.49995 31.5C1.69995 31.05 1.02495 30.45 0.449951 29.75C2.67495 41.25 12.775 50 25 50C38.75 50 50 38.75 50 25C50 23.625 49.85 22.275 49.65 20.95C48.9485 21.1389 48.2263 21.2396 47.5 21.25ZM47.5 2.50001C47.5 2.50001 42.5 9.75001 42.5 12.5C42.5 15.25 44.75 17.5 47.5 17.5C50.25 17.5 52.5 15.25 52.5 12.5C52.5 9.75001 47.5 2.50001 47.5 2.50001ZM34.0499 13.45L28.75 18.75L34.0499 24.05L36.7 21.4L34.0499 18.75L36.7 16.1L34.0499 13.45ZM16.4 37.5C18.125 34.525 21.325 32.5 25 32.5C28.6749 32.5 31.8749 34.525 33.5999 37.5H37.8C35.8 32.375 30.825 28.75 25 28.75C22.825 28.75 20.75 29.25 18.9249 30.175L9.99995 25C9.99995 23.75 9.32495 22.5 8.12495 21.775C6.32495 20.75 4.04995 21.35 2.99995 23.15C1.97495 25 2.57495 27.225 4.37495 28.275C5.57495 28.975 6.99995 28.9 8.09995 28.275L15.525 32.575C14.1 33.9 12.95 35.6 12.2 37.5H16.4Z" fill="#D4A55F"/>
</svg>
