<svg width="43" height="49" viewBox="0 0 43 49" fill="none" xmlns="http://www.w3.org/2000/svg">
<path d="M21.5 0C27.4394 0 32.25 4.81063 32.25 10.75C32.25 16.6894 27.4394 21.5 21.5 21.5C15.5606 21.5 10.75 16.6894 10.75 10.75C10.75 4.81063 15.5606 0 21.5 0ZM32.25 28.3263C32.25 31.175 31.4975 37.8131 26.3644 45.2306L24.1875 32.25L26.7137 27.1975C25.0475 27.0094 23.3006 26.875 21.5 26.875C19.6994 26.875 17.9525 27.0094 16.2863 27.1975L18.8125 32.25L16.6356 45.2306C11.5025 37.8131 10.75 31.175 10.75 28.3263C4.32687 30.2075 0 33.5938 0 37.625V48.375H43V37.625C43 33.5938 38.7 30.2075 32.25 28.3263Z" fill="#D4A55F"/>
</svg>
