<svg width="60" height="48" viewBox="0 0 60 48" fill="none" xmlns="http://www.w3.org/2000/svg">
<path d="M9 6C9 2.69063 11.6906 0 15 0H24.9656C27.4219 0 29.625 1.49063 30.5344 3.76875L35.0344 15H45V11.8312C45 9.50625 45.5438 7.20937 46.5844 5.11875L46.8187 4.65C47.5594 3.16875 49.3594 2.56875 50.8406 3.30937C52.3219 4.05 52.9219 5.85 52.1812 7.33125L51.9469 7.8C51.3187 9.04688 51 10.425 51 11.8219V15H56.25C58.3219 15 60 16.6781 60 18.75V23.0062C60 24.5531 59.2031 25.9969 57.8813 26.8219L53.8219 29.3625C52.4906 28.8094 51.0281 28.5 49.5 28.5C45.8156 28.5 42.5531 30.2719 40.5 33H33C33 34.6594 31.6594 36 30 36H29.2312C29.0719 36.45 28.8844 36.8906 28.6875 37.3219L29.2312 37.8656C30.4031 39.0375 30.4031 40.9406 29.2312 42.1125L27.1125 44.2312C25.9406 45.4031 24.0375 45.4031 22.8656 44.2312L22.3219 43.6875C21.8906 43.8937 21.45 44.0719 21 44.2312V45C21 46.6594 19.6594 48 18 48H15C13.3406 48 12 46.6594 12 45V44.2312C11.55 44.0719 11.1094 43.8844 10.6781 43.6875L10.1344 44.2312C8.9625 45.4031 7.05937 45.4031 5.8875 44.2312L3.76875 42.1031C2.59688 40.9313 2.59688 39.0281 3.76875 37.8562L4.3125 37.3125C4.10625 36.8812 3.92813 36.4406 3.76875 35.9906H3C1.34062 35.9906 0 34.65 0 32.9906V30C0 28.3406 1.34062 27 3 27H3.76875C3.92813 26.55 4.11562 26.1094 4.3125 25.6781L3.76875 25.1344C2.59688 23.9625 2.59688 22.0594 3.76875 20.8875L5.8875 18.7687C6.73125 17.925 7.94063 17.6906 8.99063 18.0563V6H9ZM24.9656 6H15V15H28.5656L24.9656 6ZM16.5 24C14.5109 24 12.6032 24.7902 11.1967 26.1967C9.79018 27.6032 9 29.5109 9 31.5C9 33.4891 9.79018 35.3968 11.1967 36.8033C12.6032 38.2098 14.5109 39 16.5 39C18.4891 39 20.3968 38.2098 21.8033 36.8033C23.2098 35.3968 24 33.4891 24 31.5C24 29.5109 23.2098 27.6032 21.8033 26.1967C20.3968 24.7902 18.4891 24 16.5 24ZM49.5 42C50.0967 42 50.669 41.7629 51.091 41.341C51.5129 40.919 51.75 40.3467 51.75 39.75C51.75 39.1533 51.5129 38.581 51.091 38.159C50.669 37.7371 50.0967 37.5 49.5 37.5C48.9033 37.5 48.331 37.7371 47.909 38.159C47.4871 38.581 47.25 39.1533 47.25 39.75C47.25 40.3467 47.4871 40.919 47.909 41.341C48.331 41.7629 48.9033 42 49.5 42ZM49.5 48C44.9437 48 41.25 44.3063 41.25 39.75C41.25 36.9562 42.6375 34.4906 44.7562 33C46.0969 32.0531 47.7375 31.5 49.5 31.5C49.7531 31.5 49.9969 31.5094 50.2406 31.5281C54.45 31.9031 57.75 35.4375 57.75 39.75C57.75 44.3063 54.0563 48 49.5 48Z" fill="#D4A55F"/>
</svg>
