<svg width="474" height="138" viewBox="0 0 474 138" fill="none" xmlns="http://www.w3.org/2000/svg">
<path d="M164.215 45.1796L172.117 45.0102C172.418 45.0102 172.569 45.3301 172.569 45.9698C172.569 46.6094 172.418 46.9293 172.117 46.9293H169.69C168.75 46.9293 168.129 47.1174 167.828 47.4937C167.527 47.8324 167.376 48.5097 167.376 49.5256V75.6585C167.376 81.8295 166.868 86.2132 165.852 88.8096C164.648 91.6693 162.842 94.0023 160.434 95.8084C158.026 97.6146 155.298 98.5177 152.25 98.5177C151.271 98.5177 150.538 98.3107 150.048 97.8968C149.522 97.4829 149.258 97.0125 149.258 96.4857C149.258 95.0559 150.086 94.0211 151.742 93.3814C153.322 94.3597 155.128 94.8489 157.16 94.8489C158.364 94.8489 159.267 94.2657 159.869 93.0992C160.998 90.7662 161.563 85.122 161.563 76.1665V51.9527C161.563 48.6414 161.168 46.9857 160.377 46.9857H157.104C156.803 46.9857 156.652 46.6847 156.652 46.0826C156.652 45.443 156.803 45.1231 157.104 45.1231L164.215 45.1796ZM180.313 59.4595C183.361 56.6374 186.898 55.2263 190.925 55.2263C194.951 55.2263 198.469 56.6374 201.479 59.4595C204.527 62.2816 206.051 65.6305 206.051 69.5063C206.051 73.3443 204.527 76.6933 201.479 79.553C198.469 82.4128 194.951 83.8426 190.925 83.8426C186.898 83.8426 183.361 82.4128 180.313 79.553C177.303 76.6933 175.798 73.3443 175.798 69.5063C175.798 65.6305 177.303 62.2816 180.313 59.4595ZM197.754 60.8141C195.986 58.4435 193.709 57.2582 190.925 57.2582C188.14 57.2582 185.864 58.4435 184.095 60.8141C182.327 63.1471 181.442 66.0445 181.442 69.5063C181.442 72.9304 182.327 75.8466 184.095 78.2548C185.864 80.6254 188.14 81.8107 190.925 81.8107C193.709 81.8107 195.986 80.6254 197.754 78.2548C199.523 75.8466 200.407 72.9304 200.407 69.5063C200.407 66.0445 199.523 63.1471 197.754 60.8141ZM213.575 52.9686C213.5 53.2696 213.312 53.4202 213.011 53.4202C212.747 53.4202 212.522 53.3261 212.334 53.1379C212.145 52.9498 212.051 52.6864 212.051 52.3477C212.164 49.8267 212.823 47.9829 214.027 46.8164C215.231 45.6499 216.529 45.0667 217.921 45.0667C218.749 45.0667 219.803 45.1984 221.082 45.4618C222.399 45.6875 223.415 45.8004 224.13 45.8004C224.845 45.8004 225.428 45.7816 225.88 45.744C226.331 45.6687 226.82 45.5182 227.347 45.2924C228.401 44.7656 229.078 43.618 229.379 41.8495C229.417 41.5484 229.624 41.3979 230 41.3979C230.602 41.3979 230.884 41.7366 230.847 42.4139C230.734 45.0479 230.094 46.9481 228.928 48.1146C227.799 49.2434 226.482 49.8078 224.977 49.8078C224.224 49.8078 223.189 49.695 221.872 49.4692C220.593 49.2058 219.408 49.0741 218.316 49.0741C217.263 49.0741 216.284 49.3375 215.381 49.8643C214.478 50.3534 213.876 51.3882 213.575 52.9686ZM211.035 83.1089L206.576 83.2218C206.313 83.2218 206.181 82.9772 206.181 82.488C206.181 81.9989 206.313 81.7543 206.576 81.7543H208.383C208.796 81.7543 209.097 81.5849 209.286 81.2463C210.151 79.8164 211.882 76.016 214.478 69.8449C217.075 63.6362 218.937 58.9327 220.066 55.7343C220.217 55.3956 220.574 55.2263 221.139 55.2263C221.741 55.2263 222.117 55.4145 222.267 55.7907C222.719 57.6722 224.036 61.228 226.218 66.4584C228.438 71.6887 230.376 76.0536 232.032 79.553C232.483 80.4561 232.897 81.0393 233.274 81.3027C233.65 81.5661 234.233 81.6978 235.023 81.6978C235.249 81.6978 235.362 81.9612 235.362 82.488C235.362 82.9772 235.268 83.2218 235.08 83.2218L229.661 83.1089L223.566 83.2218C223.34 83.2218 223.227 82.9772 223.227 82.488C223.227 81.9989 223.34 81.7543 223.566 81.7543H226.275C226.689 81.7543 226.896 81.5849 226.896 81.2463C226.896 81.2087 225.842 78.3113 223.735 72.5541H215.889C214.046 77.1072 213.124 79.7788 213.124 80.569C213.124 81.3215 213.349 81.6978 213.801 81.6978H216.115C216.416 81.6978 216.567 81.9612 216.567 82.488C216.567 82.9772 216.454 83.2218 216.228 83.2218L211.035 83.1089ZM223.001 70.6351C222.888 70.2964 221.91 67.4367 220.066 62.0559H219.897C218.994 64.6522 217.921 67.512 216.68 70.6351H223.001ZM241.441 59.4595C244.489 56.6374 248.026 55.2263 252.052 55.2263C256.078 55.2263 259.597 56.6374 262.607 59.4595C265.655 62.2816 267.179 65.6305 267.179 69.5063C267.179 73.3443 265.655 76.6933 262.607 79.553C259.597 82.4128 256.078 83.8426 252.052 83.8426C248.026 83.8426 244.489 82.4128 241.441 79.553C238.431 76.6933 236.926 73.3443 236.926 69.5063C236.926 65.6305 238.431 62.2816 241.441 59.4595ZM258.882 60.8141C257.113 58.4435 254.837 57.2582 252.052 57.2582C249.268 57.2582 246.991 58.4435 245.223 60.8141C243.454 63.1471 242.57 66.0445 242.57 69.5063C242.57 72.9304 243.454 75.8466 245.223 78.2548C246.991 80.6254 249.268 81.8107 252.052 81.8107C254.837 81.8107 257.113 80.6254 258.882 78.2548C260.65 75.8466 261.535 72.9304 261.535 69.5063C261.535 66.0445 260.65 63.1471 258.882 60.8141ZM287.333 45.1231L294.727 45.236H301.218C306.034 45.236 309.646 46.1767 312.055 48.0581C314.463 49.9019 315.667 52.1784 315.667 54.8877C315.667 56.882 314.895 58.6693 313.353 60.2497C311.81 61.7925 309.872 62.7896 307.539 63.2411V63.4669C310.926 64.069 313.597 65.2731 315.554 67.0792C317.511 68.8854 318.489 70.9361 318.489 73.2315C318.489 75.9783 317.04 78.3113 314.143 80.2303C311.246 82.1494 307.332 83.1089 302.403 83.1089H296.928L287.333 83.2218C287.032 83.2218 286.881 82.9019 286.881 82.2622C286.881 81.6226 287.032 81.3027 287.333 81.3027H289.76C290.7 81.3027 291.321 81.1334 291.622 80.7947C291.923 80.4185 292.074 79.7223 292.074 78.7064V52.0091C292.074 48.6978 291.679 47.0422 290.889 47.0422H287.333C287.032 47.0422 286.881 46.7223 286.881 46.0826C286.881 45.443 287.032 45.1231 287.333 45.1231ZM297.887 75.8843C297.887 79.1955 298.301 80.8512 299.129 80.8512H302.008C305.131 80.8512 307.52 80.1551 309.176 78.7628C310.832 77.3706 311.659 75.5268 311.659 73.2315C311.659 70.748 310.794 68.7725 309.063 67.305C307.106 65.6117 303.381 64.6522 297.887 64.4264V75.8843ZM297.887 50.0901V62.1687C298.791 62.3192 299.788 62.3945 300.879 62.3945C303.626 62.3945 305.752 61.7172 307.257 60.3626C308.8 58.9703 309.571 57.2394 309.571 55.1699C309.571 53.1003 308.743 51.313 307.088 49.8078C305.432 48.2651 302.911 47.4937 299.524 47.4937C298.433 47.4937 297.887 48.3591 297.887 50.0901ZM324.306 83.1089L319.847 83.2218C319.584 83.2218 319.452 82.9772 319.452 82.488C319.452 81.9989 319.584 81.7543 319.847 81.7543H321.653C322.067 81.7543 322.368 81.5849 322.556 81.2463C323.422 79.8164 325.153 76.016 327.749 69.8449C330.345 63.6362 332.208 58.9327 333.337 55.7343C333.487 55.3956 333.845 55.2263 334.409 55.2263C335.011 55.2263 335.388 55.4145 335.538 55.7907C335.99 57.6722 337.307 61.228 339.489 66.4584C341.709 71.6887 343.647 76.0536 345.303 79.553C345.754 80.4561 346.168 81.0393 346.544 81.3027C346.921 81.5661 347.504 81.6978 348.294 81.6978C348.52 81.6978 348.633 81.9612 348.633 82.488C348.633 82.9772 348.539 83.2218 348.351 83.2218L342.932 83.1089L336.836 83.2218C336.611 83.2218 336.498 82.9772 336.498 82.488C336.498 81.9989 336.611 81.7543 336.836 81.7543H339.546C339.959 81.7543 340.166 81.5849 340.166 81.2463C340.166 81.2087 339.113 78.3113 337.006 72.5541H329.16C327.316 77.1072 326.394 79.7788 326.394 80.569C326.394 81.3215 326.62 81.6978 327.072 81.6978H329.386C329.687 81.6978 329.837 81.9612 329.837 82.488C329.837 82.9772 329.725 83.2218 329.499 83.2218L324.306 83.1089ZM336.272 70.6351C336.159 70.2964 335.181 67.4367 333.337 62.0559H333.168C332.264 64.6522 331.192 67.512 329.95 70.6351H336.272ZM375.883 61.8865C375.883 62.1123 375.62 62.2252 375.093 62.2252C374.604 62.2252 374.359 62.0935 374.359 61.8301C373.983 59.9863 373.418 58.9703 372.666 58.7822C371.311 58.4812 369.26 58.293 366.514 58.2178H365.441C365.065 58.2554 364.877 58.5564 364.877 59.1208V77.0695C364.877 79.9293 365.253 81.3592 366.006 81.3592H368.828C369.129 81.3592 369.279 81.6602 369.279 82.2622C369.279 82.8267 369.166 83.1089 368.941 83.1089L362.393 83.0524L356.749 83.2218C356.486 83.2218 356.354 82.9396 356.354 82.3751C356.354 81.8107 356.467 81.5285 356.693 81.5285H359.232C359.646 81.5285 359.891 81.4532 359.966 81.3027C360.041 81.1146 360.079 80.6442 360.079 79.8917V62.7332C360.079 59.911 359.74 58.4059 359.063 58.2178C356.015 58.2178 353.739 58.4059 352.234 58.7822C351.481 58.9703 350.917 59.9863 350.54 61.8301C350.54 62.0935 350.277 62.2252 349.75 62.2252C349.261 62.2252 349.016 62.1123 349.016 61.8865L349.299 55.1134C349.299 54.8877 349.543 54.7748 350.032 54.7748C350.559 54.7748 350.823 54.8877 350.823 55.1134V55.8472C350.823 55.8472 353.287 55.8848 358.217 55.9601H362.393C368.113 55.9601 371.951 55.9224 373.908 55.8472H374.077V55.1134C374.077 54.8877 374.321 54.7748 374.811 54.7748C375.337 54.7748 375.601 54.8877 375.601 55.1134L375.883 61.8865ZM379.81 55.8472L384.269 55.9601C384.683 55.9601 385.041 55.9601 385.342 55.9601L391.212 55.8472C391.475 55.8472 391.607 56.1294 391.607 56.6938C391.607 57.2206 391.456 57.484 391.155 57.484H388.559C388.07 57.484 387.825 57.785 387.825 58.3871V77.0695C387.825 79.9293 388.201 81.3592 388.954 81.3592H391.776C392.077 81.3592 392.228 81.6602 392.228 82.2622C392.228 82.8267 392.115 83.1089 391.889 83.1089L385.342 83.0524L379.697 83.2218C379.434 83.2218 379.302 82.9396 379.302 82.3751C379.302 81.8107 379.415 81.5285 379.641 81.5285H382.181C382.595 81.5285 382.839 81.4532 382.915 81.3027C382.99 81.1146 383.027 80.6442 383.027 79.8917V62.1123C383.027 59.102 382.651 57.5969 381.899 57.5969H379.867C379.415 57.5969 379.189 57.3147 379.189 56.7503C379.189 56.1482 379.396 55.8472 379.81 55.8472ZM413.091 55.7343L414.276 61.943C414.276 62.244 414.05 62.3945 413.599 62.3945C413.147 62.3945 412.865 62.244 412.752 61.943C412.263 60.5507 411.492 59.4031 410.438 58.5C409.385 57.5969 408.237 57.1454 406.995 57.1454C405.791 57.1077 404.719 57.4464 403.778 58.1613C402.875 58.8763 402.423 59.7605 402.423 60.8141C402.423 61.8301 402.724 62.7708 403.326 63.6362C403.966 64.4641 404.737 65.179 405.641 65.7811C406.544 66.3831 407.541 67.0792 408.632 67.8694C409.723 68.622 410.72 69.3746 411.623 70.1271C412.527 70.8797 413.279 71.858 413.881 73.0621C414.521 74.2662 414.841 75.5644 414.841 76.9567C414.841 79.1391 413.881 80.8324 411.962 82.0365C410.043 83.2406 407.955 83.8426 405.697 83.8426C403.477 83.8426 401.426 83.4099 399.545 82.5445C399.545 82.996 399.507 83.2782 399.432 83.3911C399.394 83.504 399.206 83.5792 398.867 83.6169H398.642C398.341 83.6169 398.171 83.4664 398.134 83.1653C398.058 82.2622 397.908 81.0205 397.682 79.4401C397.456 77.8597 397.287 76.5804 397.174 75.602C397.174 75.2258 397.4 75.0376 397.851 75.0376C398.341 75.0376 398.604 75.1317 398.642 75.3198C399.168 77.1636 400.09 78.7628 401.407 80.1174C402.724 81.4344 404.098 82.0929 405.528 82.0929C406.958 82.0929 408.143 81.7543 409.084 81.077C410.024 80.362 410.495 79.3837 410.495 78.142C410.495 76.9002 410.062 75.7714 409.196 74.7554C408.369 73.7018 407.353 72.7611 406.149 71.9333C404.944 71.1055 403.74 70.2776 402.536 69.4498C401.332 68.5844 400.297 67.5308 399.432 66.289C398.604 65.0473 398.19 63.6927 398.19 62.2252C398.19 60.118 399.074 58.4435 400.843 57.2018C402.649 55.9601 404.775 55.3392 407.221 55.3392C408.613 55.3392 410.099 55.6026 411.68 56.1294C411.605 55.9036 411.567 55.6402 411.567 55.3392C411.567 55.0005 411.736 54.8312 412.075 54.8312C412.451 54.8312 412.696 54.8877 412.809 55.0005C412.922 55.0758 413.016 55.3204 413.091 55.7343ZM445.003 61.8865C445.003 62.1123 444.74 62.2252 444.213 62.2252C443.724 62.2252 443.479 62.0935 443.479 61.8301C443.103 59.9863 442.538 58.9703 441.786 58.7822C440.431 58.4812 438.38 58.293 435.634 58.2178H434.561C434.185 58.2554 433.997 58.5564 433.997 59.1208V77.0695C433.997 79.9293 434.373 81.3592 435.126 81.3592H437.948C438.249 81.3592 438.399 81.6602 438.399 82.2622C438.399 82.8267 438.286 83.1089 438.061 83.1089L431.513 83.0524L425.869 83.2218C425.606 83.2218 425.474 82.9396 425.474 82.3751C425.474 81.8107 425.587 81.5285 425.813 81.5285H428.352C428.766 81.5285 429.011 81.4532 429.086 81.3027C429.161 81.1146 429.199 80.6442 429.199 79.8917V62.7332C429.199 59.911 428.86 58.4059 428.183 58.2178C425.135 58.2178 422.859 58.4059 421.354 58.7822C420.601 58.9703 420.037 59.9863 419.66 61.8301C419.66 62.0935 419.397 62.2252 418.87 62.2252C418.381 62.2252 418.136 62.1123 418.136 61.8865L418.419 55.1134C418.419 54.8877 418.663 54.7748 419.152 54.7748C419.679 54.7748 419.943 54.8877 419.943 55.1134V55.8472C419.943 55.8472 422.407 55.8848 427.336 55.9601H431.513C437.233 55.9601 441.071 55.9224 443.027 55.8472H443.197V55.1134C443.197 54.8877 443.441 54.7748 443.931 54.7748C444.457 54.7748 444.721 54.8877 444.721 55.1134L445.003 61.8865ZM448.987 83.1089L444.528 83.2218C444.264 83.2218 444.133 82.9772 444.133 82.488C444.133 81.9989 444.264 81.7543 444.528 81.7543H446.334C446.748 81.7543 447.049 81.5849 447.237 81.2463C448.102 79.8164 449.833 76.016 452.43 69.8449C455.026 63.6362 456.889 58.9327 458.017 55.7343C458.168 55.3956 458.525 55.2263 459.09 55.2263C459.692 55.2263 460.068 55.4145 460.219 55.7907C460.67 57.6722 461.987 61.228 464.17 66.4584C466.39 71.6887 468.328 76.0536 469.983 79.553C470.435 80.4561 470.849 81.0393 471.225 81.3027C471.601 81.5661 472.184 81.6978 472.975 81.6978C473.2 81.6978 473.313 81.9612 473.313 82.488C473.313 82.9772 473.219 83.2218 473.031 83.2218L467.613 83.1089L461.517 83.2218C461.291 83.2218 461.178 82.9772 461.178 82.488C461.178 81.9989 461.291 81.7543 461.517 81.7543H464.226C464.64 81.7543 464.847 81.5849 464.847 81.2463C464.847 81.2087 463.793 78.3113 461.686 72.5541H453.841C451.997 77.1072 451.075 79.7788 451.075 80.569C451.075 81.3215 451.301 81.6978 451.752 81.6978H454.066C454.367 81.6978 454.518 81.9612 454.518 82.488C454.518 82.9772 454.405 83.2218 454.179 83.2218L448.987 83.1089ZM460.952 70.6351C460.839 70.2964 459.861 67.4367 458.017 62.0559H457.848C456.945 64.6522 455.873 67.512 454.631 70.6351H460.952Z" fill="#00264C"/>
<path d="M195.428 107.407L192.409 107.463C192.277 107.463 192.211 107.322 192.211 107.04C192.211 106.758 192.258 106.617 192.352 106.617H193.735C193.961 106.617 194.074 106.457 194.074 106.137V96.8802C194.074 95.3939 193.867 94.6507 193.453 94.6507H192.465C192.258 94.6507 192.155 94.5096 192.155 94.2274C192.155 93.9264 192.239 93.7759 192.409 93.7759C193.387 93.8135 194.375 93.8323 195.372 93.8323H198.109C200.555 93.8323 202.531 94.5002 204.036 95.836C205.56 97.153 206.322 98.7993 206.322 100.775C206.322 102.75 205.579 104.349 204.092 105.572C202.625 106.795 200.762 107.407 198.504 107.407H195.428ZM197.15 94.679C196.698 94.679 196.473 94.9518 196.473 95.4974V104.302C196.473 105.77 196.67 106.504 197.065 106.504H198.081C199.812 106.504 201.138 106.014 202.06 105.036C203.001 104.058 203.471 102.694 203.471 100.944C203.471 99.1755 202.963 97.708 201.947 96.5416C200.931 95.3751 199.361 94.7542 197.235 94.679C197.197 94.679 197.169 94.679 197.15 94.679ZM208.864 107.407L206.634 107.463C206.503 107.463 206.437 107.341 206.437 107.096C206.437 106.852 206.503 106.729 206.634 106.729H207.537C207.744 106.729 207.895 106.645 207.989 106.475C208.422 105.761 209.287 103.86 210.585 100.775C211.884 97.6704 212.815 95.3186 213.379 93.7194C213.455 93.5501 213.633 93.4655 213.915 93.4655C214.216 93.4655 214.405 93.5595 214.48 93.7477C214.706 94.6884 215.364 96.4663 216.455 99.0815C217.565 101.697 218.534 103.879 219.362 105.629C219.588 106.08 219.795 106.372 219.983 106.504C220.171 106.635 220.463 106.701 220.858 106.701C220.971 106.701 221.027 106.833 221.027 107.096C221.027 107.341 220.98 107.463 220.886 107.463L218.177 107.407L215.129 107.463C215.016 107.463 214.96 107.341 214.96 107.096C214.96 106.852 215.016 106.729 215.129 106.729H216.484C216.691 106.729 216.794 106.645 216.794 106.475C216.794 106.457 216.267 105.008 215.214 102.129H211.291C210.369 104.406 209.908 105.742 209.908 106.137C209.908 106.513 210.021 106.701 210.247 106.701H211.404C211.554 106.701 211.63 106.833 211.63 107.096C211.63 107.341 211.573 107.463 211.46 107.463L208.864 107.407ZM214.847 101.17C214.79 101.001 214.301 99.5706 213.379 96.8802H213.295C212.843 98.1784 212.307 99.6083 211.686 101.17H214.847ZM242.199 102.524C242.199 104.086 241.531 105.356 240.195 106.334C238.86 107.294 237.383 107.774 235.765 107.774C234.147 107.774 232.717 107.491 231.475 106.927L231.701 107.491C231.757 107.604 231.71 107.708 231.56 107.802C231.428 107.915 231.277 107.971 231.108 107.971C230.939 107.971 230.826 107.924 230.769 107.83C230.167 106.306 229.801 104.538 229.669 102.524C229.669 102.336 229.819 102.242 230.12 102.242C230.421 102.242 230.581 102.308 230.6 102.44C231.014 103.87 231.851 105.017 233.112 105.883C233.883 106.428 234.777 106.701 235.793 106.701C236.828 106.701 237.655 106.41 238.276 105.826C238.916 105.224 239.236 104.509 239.236 103.682C239.236 102.835 239.019 102.082 238.587 101.424C238.154 100.747 237.618 100.201 236.978 99.787C236.338 99.3731 235.642 98.9404 234.89 98.4888C234.137 98.0185 233.441 97.5763 232.801 97.1624C232.162 96.7297 231.626 96.1559 231.193 95.4409C230.76 94.726 230.544 93.917 230.544 93.0139C230.544 91.6405 231.155 90.4834 232.378 89.5427C233.62 88.5832 235.172 88.1034 237.035 88.1034C237.881 88.1034 238.671 88.2163 239.405 88.4421L239.744 88.5267C239.669 88.2257 239.622 88.0188 239.603 87.9059C239.603 87.793 239.64 87.7177 239.716 87.6801C239.81 87.6237 239.941 87.5954 240.111 87.5954C240.299 87.5954 240.421 87.6707 240.478 87.8212C240.91 89.3452 241.164 90.8409 241.24 92.3084C241.183 92.4213 241.023 92.4777 240.76 92.4777C240.515 92.4777 240.365 92.4495 240.308 92.393C240.101 91.6217 239.81 90.9914 239.433 90.5022C239.057 89.9942 238.643 89.6462 238.192 89.458C237.74 89.2699 237.213 89.1758 236.611 89.1758C235.445 89.1758 234.608 89.4769 234.1 90.0789C233.61 90.6621 233.366 91.3112 233.366 92.0262C233.366 92.7223 233.526 93.3243 233.846 93.8323C234.184 94.3215 234.608 94.7542 235.116 95.1305C235.642 95.488 236.216 95.8454 236.837 96.2029C237.458 96.5416 238.079 96.9084 238.7 97.3035C239.339 97.6986 239.923 98.1314 240.449 98.6017C241.616 99.6365 242.199 100.944 242.199 102.524ZM244.939 93.7759L247.168 93.8323C247.375 93.8323 247.554 93.8323 247.705 93.8323L250.64 93.7759C250.771 93.7759 250.837 93.917 250.837 94.1992C250.837 94.4626 250.762 94.5943 250.611 94.5943H249.313C249.069 94.5943 248.946 94.7448 248.946 95.0458V104.387C248.946 105.817 249.135 106.532 249.511 106.532H250.922C251.072 106.532 251.148 106.682 251.148 106.983C251.148 107.266 251.091 107.407 250.978 107.407L247.705 107.379L244.883 107.463C244.751 107.463 244.685 107.322 244.685 107.04C244.685 106.758 244.741 106.617 244.854 106.617H246.124C246.331 106.617 246.453 106.579 246.491 106.504C246.529 106.41 246.548 106.174 246.548 105.798V96.9084C246.548 95.4033 246.359 94.6507 245.983 94.6507H244.967C244.741 94.6507 244.629 94.5096 244.629 94.2274C244.629 93.9264 244.732 93.7759 244.939 93.7759ZM253.593 93.7759L255.822 93.8323C256.029 93.8323 256.208 93.8323 256.358 93.8323L259.293 93.7759C259.425 93.7759 259.491 93.917 259.491 94.1992C259.491 94.4626 259.416 94.5943 259.265 94.5943H257.967C257.722 94.5943 257.6 94.7448 257.6 95.0458V104.387C257.6 105.798 257.788 106.504 258.165 106.504H258.898C260.968 106.466 262.398 106.174 263.188 105.629L263.329 104.528C263.367 104.415 263.461 104.359 263.611 104.359C263.781 104.359 263.893 104.359 263.95 104.359C264.063 104.396 264.119 104.453 264.119 104.528C264.006 105.318 263.95 106.428 263.95 107.858C263.95 107.952 263.818 107.999 263.555 107.999C263.31 107.999 263.188 107.952 263.188 107.858V107.407H258.334L253.536 107.463C253.405 107.463 253.339 107.322 253.339 107.04C253.339 106.758 253.395 106.617 253.508 106.617H254.778C254.985 106.617 255.107 106.579 255.145 106.504C255.183 106.41 255.201 106.174 255.201 105.798V96.9084C255.201 95.4033 255.013 94.6507 254.637 94.6507H253.621C253.395 94.6507 253.282 94.5096 253.282 94.2274C253.282 93.9264 253.386 93.7759 253.593 93.7759ZM276.493 93.8323L278.553 93.7759C278.685 93.7759 278.751 93.8982 278.751 94.1428C278.751 94.3873 278.685 94.5096 278.553 94.5096H277.819C277.612 94.5096 277.462 94.5943 277.368 94.7636C276.841 95.6291 275.947 97.7363 274.687 101.085C273.445 104.434 272.655 106.673 272.316 107.802C272.241 107.971 272.053 108.056 271.752 108.056C271.47 108.056 271.291 107.962 271.216 107.774C270.971 106.833 270.284 104.989 269.155 102.242C268.027 99.4954 267.067 97.2847 266.277 95.6103C266.051 95.1587 265.844 94.8671 265.656 94.7354C265.468 94.6037 265.176 94.5379 264.781 94.5379C264.668 94.5379 264.612 94.4156 264.612 94.171C264.612 93.9076 264.668 93.7759 264.781 93.7759L267.462 93.8323C267.462 93.8323 268.478 93.8135 270.51 93.7759C270.623 93.7759 270.679 93.8982 270.679 94.1428C270.679 94.3873 270.623 94.5096 270.51 94.5096H269.155C268.948 94.5096 268.845 94.5943 268.845 94.7636C268.845 94.8765 269.362 96.3534 270.397 99.1944C271.451 102.035 272.119 103.888 272.401 104.754C272.74 103.587 273.182 102.233 273.727 100.69C274.875 97.4541 275.449 95.6197 275.449 95.1869C275.449 94.7542 275.336 94.5379 275.11 94.5379H273.953C273.803 94.5379 273.727 94.4156 273.727 94.171C273.727 93.9076 273.784 93.7759 273.897 93.7759L276.493 93.8323ZM280.133 93.7759L283.011 93.8323H288.853V93.3808C288.853 93.2679 288.975 93.2115 289.22 93.2115C289.483 93.2115 289.615 93.2679 289.615 93.3808C289.615 94.8671 289.681 95.9301 289.813 96.5698C289.85 96.6827 289.747 96.7391 289.502 96.7391C289.182 96.7391 289.022 96.6827 289.022 96.5698C288.759 95.7043 288.505 95.2152 288.261 95.1023C287.47 94.8201 286.323 94.679 284.818 94.679C284.554 94.6978 284.375 94.773 284.281 94.9047C284.187 95.0364 284.14 95.2716 284.14 95.6103V100.239C286.417 100.163 287.668 100.06 287.894 99.9281L288.091 98.7428C288.129 98.6488 288.261 98.6017 288.486 98.6017C288.731 98.6017 288.853 98.6676 288.853 98.7993C288.778 99.3449 288.74 99.9563 288.74 100.634C288.74 101.292 288.778 101.894 288.853 102.44C288.853 102.553 288.721 102.609 288.458 102.609C288.213 102.609 288.091 102.572 288.091 102.496L287.865 101.283C287.64 101.151 286.398 101.048 284.14 100.972V104.387C284.14 105.798 284.328 106.504 284.705 106.504H285.608C287.677 106.466 289.107 106.174 289.897 105.629L290.038 104.528C290.076 104.415 290.17 104.359 290.321 104.359C290.49 104.359 290.603 104.359 290.659 104.359C290.772 104.396 290.829 104.453 290.829 104.528C290.716 105.318 290.659 106.428 290.659 107.858C290.659 107.952 290.528 107.999 290.264 107.999C290.02 107.999 289.897 107.952 289.897 107.858V107.407H284.874L280.076 107.463C279.945 107.463 279.879 107.322 279.879 107.04C279.879 106.758 279.935 106.617 280.048 106.617H281.318C281.525 106.617 281.647 106.579 281.685 106.504C281.723 106.41 281.741 106.174 281.741 105.798V96.9084C281.741 95.4033 281.553 94.6507 281.177 94.6507H280.161C279.935 94.6507 279.822 94.5096 279.822 94.2274C279.822 93.9264 279.926 93.7759 280.133 93.7759ZM293.306 93.7759L295.536 93.8323C295.743 93.8323 295.922 93.8323 296.072 93.8323L299.007 93.7759C299.139 93.7759 299.205 93.917 299.205 94.1992C299.205 94.4626 299.129 94.5943 298.979 94.5943H297.681C297.436 94.5943 297.314 94.7448 297.314 95.0458V104.387C297.314 105.817 297.502 106.532 297.878 106.532H299.289C299.44 106.532 299.515 106.682 299.515 106.983C299.515 107.266 299.459 107.407 299.346 107.407L296.072 107.379L293.25 107.463C293.118 107.463 293.052 107.322 293.052 107.04C293.052 106.758 293.109 106.617 293.222 106.617H294.492C294.699 106.617 294.821 106.579 294.859 106.504C294.896 106.41 294.915 106.174 294.915 105.798V96.9084C294.915 95.4033 294.727 94.6507 294.351 94.6507H293.335C293.109 94.6507 292.996 94.5096 292.996 94.2274C292.996 93.9264 293.099 93.7759 293.306 93.7759ZM304.923 107.407L301.904 107.463C301.772 107.463 301.706 107.322 301.706 107.04C301.706 106.758 301.753 106.617 301.847 106.617H303.23C303.456 106.617 303.569 106.457 303.569 106.137V96.8802C303.569 95.3939 303.362 94.6507 302.948 94.6507H301.96C301.753 94.6507 301.65 94.5096 301.65 94.2274C301.65 93.9264 301.734 93.7759 301.904 93.7759C303.578 93.8135 305.29 93.8323 307.04 93.8323C308.79 93.8323 310.144 94.2086 311.104 94.9612C312.082 95.6949 312.571 96.6074 312.571 97.6986C312.571 98.771 312.186 99.6365 311.414 100.295C310.643 100.953 309.712 101.33 308.62 101.424C309.166 101.8 309.872 102.553 310.737 103.682C311.057 104.114 311.555 104.613 312.233 105.177C312.91 105.723 313.672 106.212 314.519 106.645C314.142 107.397 313.568 107.774 312.797 107.774C312.026 107.774 311.348 107.491 310.765 106.927C310.182 106.363 309.73 105.742 309.411 105.064C309.091 104.368 308.733 103.653 308.338 102.92C307.962 102.186 307.604 101.706 307.266 101.48L305.968 101.396V104.669C305.968 105.911 306.156 106.532 306.532 106.532H307.717C307.868 106.532 307.943 106.682 307.943 106.983C307.943 107.266 307.896 107.407 307.802 107.407H304.923ZM306.532 94.679C306.156 94.679 305.968 94.9894 305.968 95.6103V100.295C306.231 100.351 306.494 100.38 306.758 100.38C307.604 100.38 308.338 100.144 308.959 99.6741C309.58 99.2038 309.89 98.5641 309.89 97.7551C309.89 96.9461 309.608 96.2311 309.044 95.6103C308.498 94.9894 307.661 94.679 306.532 94.679ZM316.099 107.407L313.87 107.463C313.738 107.463 313.672 107.341 313.672 107.096C313.672 106.852 313.738 106.729 313.87 106.729H314.773C314.98 106.729 315.13 106.645 315.224 106.475C315.657 105.761 316.522 103.86 317.82 100.775C319.119 97.6704 320.05 95.3186 320.614 93.7194C320.69 93.5501 320.868 93.4655 321.151 93.4655C321.452 93.4655 321.64 93.5595 321.715 93.7477C321.941 94.6884 322.599 96.4663 323.691 99.0815C324.801 101.697 325.769 103.879 326.597 105.629C326.823 106.08 327.03 106.372 327.218 106.504C327.406 106.635 327.698 106.701 328.093 106.701C328.206 106.701 328.262 106.833 328.262 107.096C328.262 107.341 328.215 107.463 328.121 107.463L325.412 107.407L322.364 107.463C322.251 107.463 322.195 107.341 322.195 107.096C322.195 106.852 322.251 106.729 322.364 106.729H323.719C323.926 106.729 324.029 106.645 324.029 106.475C324.029 106.457 323.502 105.008 322.449 102.129H318.526C317.604 104.406 317.143 105.742 317.143 106.137C317.143 106.513 317.256 106.701 317.482 106.701H318.639C318.789 106.701 318.865 106.833 318.865 107.096C318.865 107.341 318.808 107.463 318.695 107.463L316.099 107.407ZM322.082 101.17C322.025 101.001 321.536 99.5706 320.614 96.8802H320.53C320.078 98.1784 319.542 99.6083 318.921 101.17H322.082ZM339.98 90.982C341.993 89.0629 344.411 88.1034 347.233 88.1034C350.055 88.1034 352.473 89.0629 354.486 90.982C356.499 92.901 357.505 95.2246 357.505 97.9526C357.505 100.662 356.499 102.976 354.486 104.895C352.473 106.814 350.055 107.774 347.233 107.774C344.411 107.774 341.993 106.814 339.98 104.895C337.967 102.976 336.96 100.662 336.96 97.9526C336.96 95.2246 337.967 92.901 339.98 90.982ZM352.059 91.8568C350.817 90.22 349.208 89.4016 347.233 89.4016C345.257 89.4016 343.639 90.22 342.379 91.8568C341.137 93.4937 340.516 95.5256 340.516 97.9526C340.516 100.361 341.137 102.383 342.379 104.02C343.639 105.657 345.257 106.475 347.233 106.475C349.208 106.475 350.817 105.657 352.059 104.02C353.319 102.383 353.95 100.361 353.95 97.9526C353.95 95.5256 353.319 93.4937 352.059 91.8568ZM360.249 93.7759L362.479 93.8323C362.686 93.8323 362.864 93.8323 363.015 93.8323L365.95 93.7759C366.082 93.7759 366.147 93.917 366.147 94.1992C366.147 94.4626 366.072 94.5943 365.922 94.5943H364.623C364.379 94.5943 364.257 94.7448 364.257 95.0458V104.387C364.257 105.798 364.445 106.504 364.821 106.504H365.555C367.624 106.466 369.054 106.174 369.844 105.629L369.985 104.528C370.023 104.415 370.117 104.359 370.268 104.359C370.437 104.359 370.55 104.359 370.606 104.359C370.719 104.396 370.776 104.453 370.776 104.528C370.663 105.318 370.606 106.428 370.606 107.858C370.606 107.952 370.475 107.999 370.211 107.999C369.967 107.999 369.844 107.952 369.844 107.858V107.407H364.99L360.193 107.463C360.061 107.463 359.995 107.322 359.995 107.04C359.995 106.758 360.052 106.617 360.164 106.617H361.434C361.641 106.617 361.764 106.579 361.801 106.504C361.839 106.41 361.858 106.174 361.858 105.798V96.9084C361.858 95.4033 361.67 94.6507 361.293 94.6507H360.277C360.052 94.6507 359.939 94.5096 359.939 94.2274C359.939 93.9264 360.042 93.7759 360.249 93.7759ZM372.651 93.7759L374.881 93.8323C375.087 93.8323 375.266 93.8323 375.417 93.8323L378.352 93.7759C378.483 93.7759 378.549 93.917 378.549 94.1992C378.549 94.4626 378.474 94.5943 378.323 94.5943H377.025C376.781 94.5943 376.658 94.7448 376.658 95.0458V104.387C376.658 105.817 376.847 106.532 377.223 106.532H378.634C378.784 106.532 378.86 106.682 378.86 106.983C378.86 107.266 378.803 107.407 378.69 107.407L375.417 107.379L372.595 107.463C372.463 107.463 372.397 107.322 372.397 107.04C372.397 106.758 372.453 106.617 372.566 106.617H373.836C374.043 106.617 374.166 106.579 374.203 106.504C374.241 106.41 374.26 106.174 374.26 105.798V96.9084C374.26 95.4033 374.071 94.6507 373.695 94.6507H372.679C372.453 94.6507 372.341 94.5096 372.341 94.2274C372.341 93.9264 372.444 93.7759 372.651 93.7759ZM391.803 93.8323L393.863 93.7759C393.995 93.7759 394.061 93.8982 394.061 94.1428C394.061 94.3873 393.995 94.5096 393.863 94.5096H393.13C392.923 94.5096 392.772 94.5943 392.678 94.7636C392.151 95.6291 391.257 97.7363 389.997 101.085C388.755 104.434 387.965 106.673 387.626 107.802C387.551 107.971 387.363 108.056 387.062 108.056C386.78 108.056 386.601 107.962 386.526 107.774C386.281 106.833 385.594 104.989 384.466 102.242C383.337 99.4954 382.377 97.2847 381.587 95.6103C381.361 95.1587 381.154 94.8671 380.966 94.7354C380.778 94.6037 380.486 94.5379 380.091 94.5379C379.978 94.5379 379.922 94.4156 379.922 94.171C379.922 93.9076 379.978 93.7759 380.091 93.7759L382.772 93.8323C382.772 93.8323 383.788 93.8135 385.82 93.7759C385.933 93.7759 385.99 93.8982 385.99 94.1428C385.99 94.3873 385.933 94.5096 385.82 94.5096H384.466C384.259 94.5096 384.155 94.5943 384.155 94.7636C384.155 94.8765 384.673 96.3534 385.707 99.1944C386.761 102.035 387.429 103.888 387.711 104.754C388.05 103.587 388.492 102.233 389.037 100.69C390.185 97.4541 390.759 95.6197 390.759 95.1869C390.759 94.7542 390.646 94.5379 390.42 94.5379H389.263C389.113 94.5379 389.037 94.4156 389.037 94.171C389.037 93.9076 389.094 93.7759 389.207 93.7759L391.803 93.8323ZM395.443 93.7759L398.322 93.8323H404.163V93.3808C404.163 93.2679 404.286 93.2115 404.53 93.2115C404.794 93.2115 404.925 93.2679 404.925 93.3808C404.925 94.8671 404.991 95.9301 405.123 96.5698C405.16 96.6827 405.057 96.7391 404.812 96.7391C404.493 96.7391 404.333 96.6827 404.333 96.5698C404.069 95.7043 403.815 95.2152 403.571 95.1023C402.78 94.8201 401.633 94.679 400.128 94.679C399.864 94.6978 399.686 94.773 399.591 94.9047C399.497 95.0364 399.45 95.2716 399.45 95.6103V100.239C401.727 100.163 402.978 100.06 403.204 99.9281L403.401 98.7428C403.439 98.6488 403.571 98.6017 403.796 98.6017C404.041 98.6017 404.163 98.6676 404.163 98.7993C404.088 99.3449 404.05 99.9563 404.05 100.634C404.05 101.292 404.088 101.894 404.163 102.44C404.163 102.553 404.032 102.609 403.768 102.609C403.524 102.609 403.401 102.572 403.401 102.496L403.176 101.283C402.95 101.151 401.708 101.048 399.45 100.972V104.387C399.45 105.798 399.639 106.504 400.015 106.504H400.918C402.987 106.466 404.417 106.174 405.208 105.629L405.349 104.528C405.386 104.415 405.48 104.359 405.631 104.359C405.8 104.359 405.913 104.359 405.969 104.359C406.082 104.396 406.139 104.453 406.139 104.528C406.026 105.318 405.969 106.428 405.969 107.858C405.969 107.952 405.838 107.999 405.574 107.999C405.33 107.999 405.208 107.952 405.208 107.858V107.407H400.184L395.387 107.463C395.255 107.463 395.189 107.322 395.189 107.04C395.189 106.758 395.245 106.617 395.358 106.617H396.628C396.835 106.617 396.958 106.579 396.995 106.504C397.033 106.41 397.052 106.174 397.052 105.798V96.9084C397.052 95.4033 396.863 94.6507 396.487 94.6507H395.471C395.245 94.6507 395.133 94.5096 395.133 94.2274C395.133 93.9264 395.236 93.7759 395.443 93.7759ZM408.617 93.7759L410.846 93.8323C411.053 93.8323 411.232 93.8323 411.382 93.8323L414.317 93.7759C414.449 93.7759 414.515 93.917 414.515 94.1992C414.515 94.4626 414.44 94.5943 414.289 94.5943H412.991C412.746 94.5943 412.624 94.7448 412.624 95.0458V104.387C412.624 105.817 412.812 106.532 413.188 106.532H414.599C414.75 106.532 414.825 106.682 414.825 106.983C414.825 107.266 414.769 107.407 414.656 107.407L411.382 107.379L408.56 107.463C408.428 107.463 408.363 107.322 408.363 107.04C408.363 106.758 408.419 106.617 408.532 106.617H409.802C410.009 106.617 410.131 106.579 410.169 106.504C410.206 106.41 410.225 106.174 410.225 105.798V96.9084C410.225 95.4033 410.037 94.6507 409.661 94.6507H408.645C408.419 94.6507 408.306 94.5096 408.306 94.2274C408.306 93.9264 408.41 93.7759 408.617 93.7759ZM420.234 107.407L417.214 107.463C417.082 107.463 417.016 107.322 417.016 107.04C417.016 106.758 417.063 106.617 417.157 106.617H418.54C418.766 106.617 418.879 106.457 418.879 106.137V96.8802C418.879 95.3939 418.672 94.6507 418.258 94.6507H417.27C417.063 94.6507 416.96 94.5096 416.96 94.2274C416.96 93.9264 417.045 93.7759 417.214 93.7759C418.888 93.8135 420.6 93.8323 422.35 93.8323C424.1 93.8323 425.454 94.2086 426.414 94.9612C427.392 95.6949 427.882 96.6074 427.882 97.6986C427.882 98.771 427.496 99.6365 426.724 100.295C425.953 100.953 425.022 101.33 423.931 101.424C424.476 101.8 425.182 102.553 426.047 103.682C426.367 104.114 426.866 104.613 427.543 105.177C428.22 105.723 428.982 106.212 429.829 106.645C429.453 107.397 428.879 107.774 428.107 107.774C427.336 107.774 426.659 107.491 426.075 106.927C425.492 106.363 425.041 105.742 424.721 105.064C424.401 104.368 424.043 103.653 423.648 102.92C423.272 102.186 422.915 101.706 422.576 101.48L421.278 101.396V104.669C421.278 105.911 421.466 106.532 421.842 106.532H423.027C423.178 106.532 423.253 106.682 423.253 106.983C423.253 107.266 423.206 107.407 423.112 107.407H420.234ZM421.842 94.679C421.466 94.679 421.278 94.9894 421.278 95.6103V100.295C421.541 100.351 421.805 100.38 422.068 100.38C422.915 100.38 423.648 100.144 424.269 99.6741C424.89 99.2038 425.201 98.5641 425.201 97.7551C425.201 96.9461 424.918 96.2311 424.354 95.6103C423.808 94.9894 422.971 94.679 421.842 94.679ZM431.409 107.407L429.18 107.463C429.048 107.463 428.982 107.341 428.982 107.096C428.982 106.852 429.048 106.729 429.18 106.729H430.083C430.29 106.729 430.44 106.645 430.534 106.475C430.967 105.761 431.832 103.86 433.131 100.775C434.429 97.6704 435.36 95.3186 435.925 93.7194C436 93.5501 436.179 93.4655 436.461 93.4655C436.762 93.4655 436.95 93.5595 437.025 93.7477C437.251 94.6884 437.909 96.4663 439.001 99.0815C440.111 101.697 441.08 103.879 441.907 105.629C442.133 106.08 442.34 106.372 442.528 106.504C442.716 106.635 443.008 106.701 443.403 106.701C443.516 106.701 443.573 106.833 443.573 107.096C443.573 107.341 443.525 107.463 443.431 107.463L440.722 107.407L437.674 107.463C437.561 107.463 437.505 107.341 437.505 107.096C437.505 106.852 437.561 106.729 437.674 106.729H439.029C439.236 106.729 439.339 106.645 439.339 106.475C439.339 106.457 438.813 105.008 437.759 102.129H433.836C432.914 104.406 432.453 105.742 432.453 106.137C432.453 106.513 432.566 106.701 432.792 106.701H433.949C434.1 106.701 434.175 106.833 434.175 107.096C434.175 107.341 434.118 107.463 434.006 107.463L431.409 107.407ZM437.392 101.17C437.336 101.001 436.846 99.5706 435.925 96.8802H435.84C435.388 98.1784 434.852 99.6083 434.231 101.17H437.392Z" fill="#00264C"/>
<path d="M101.705 24.8943L101.42 26.56C99.262 38.0138 96.8031 47.6591 94.0428 55.4959C91.2824 63.3327 87.6496 70.9315 83.1442 78.2924C68.2638 102.723 51.9874 114.938 34.3149 114.938C29.2384 114.938 24.273 113.986 19.4186 112.083C14.5643 110.179 10.5507 107.625 7.37789 104.42C2.61869 99.5977 0.239099 93.5377 0.239099 86.2402C0.239099 79.038 3.04702 73.0255 8.66287 68.2029C14.3104 63.3803 21.3382 60.9689 29.7461 60.9689C43.1036 60.9689 57.6191 66.4103 73.2927 77.293L68.01 80.8148C61.6644 76.2142 54.4622 72.4069 46.4033 69.3927C38.3444 66.3468 31.3484 64.8239 25.4152 64.8239C18.8793 64.8239 13.4855 66.5848 9.23397 70.1066C4.98243 73.6284 2.85665 78.102 2.85665 83.5275C2.85665 87.0493 3.71331 90.5394 5.42662 93.9977C7.17166 97.4878 9.56712 100.486 12.613 102.993C15.2147 105.15 18.7206 106.911 23.1308 108.275C27.541 109.64 31.9353 110.322 36.3138 110.322C50.8134 110.322 63.2667 103.231 73.6734 89.0482C77.6394 83.591 81.304 77.0709 84.6672 69.4879C88.0621 61.8732 90.4099 54.8454 91.7108 48.4047L93.8524 37.6965L95.1374 31.224C95.2326 30.8115 95.3436 30.1928 95.4705 29.3679C93.8841 29.59 92.4405 29.701 91.1397 29.701L86.7136 29.6059C85.2541 29.6059 83.8581 29.7962 82.5255 30.177C80.4315 30.7798 78.7499 31.9061 77.4808 33.556C76.2117 35.2058 75.5771 37.0778 75.5771 39.1718C75.5771 41.1707 76.0848 43.0426 77.1001 44.7877C78.1471 46.5327 80.0032 48.6743 82.6683 51.2126C85.27 53.6874 86.5708 55.9559 86.5708 58.0182C86.5708 60.7786 85.5714 63.4913 83.5726 66.1564C81.6054 68.7899 79.6066 70.1066 77.576 70.1066C75.9578 70.1066 74.6411 69.5355 73.6258 68.3933C72.6105 67.2193 72.1029 65.6964 72.1029 63.8244C72.1029 63.6023 72.1346 63.2375 72.1981 62.7298C74.2604 65.6488 76.3069 67.1083 78.3374 67.1083C81.3199 67.1083 82.8111 65.5536 82.8111 62.4443C82.8111 60.5723 81.2564 58.2086 78.1471 55.3531C74.308 51.8313 72.3885 47.786 72.3885 43.2171C72.3885 38.2041 74.2128 33.8733 77.8615 30.2245C81.542 26.5758 85.8887 24.7515 90.9017 24.7515L95.2802 24.8467L99.3255 24.9418C100.309 24.9418 101.102 24.926 101.705 24.8943Z" fill="#00264C"/>
<path d="M119.035 31.4627C118.23 36.7547 112.391 50.1062 101.519 71.5172L100.405 73.6315C104.569 69.754 109.017 66.6456 113.749 64.3061C118.481 61.9666 122.496 60.9137 125.796 61.1473C129.061 61.3785 130.57 63.2149 130.324 66.6565C130.046 70.5595 127.947 74.9754 124.029 79.9044C120.111 84.8334 115.253 89.1966 109.455 92.994C98.9116 99.8075 88.9741 102.884 79.6422 102.223L80.5089 100.573C88.2432 85.6437 94.9841 72.1421 100.732 60.0679C106.515 47.9962 109.459 41.2153 109.566 39.7251C109.642 38.6607 109.041 38.0832 107.764 37.9928C106.983 37.9375 105.701 38.1676 103.916 38.6832L103.449 36.9919C108.18 35.6509 113.376 33.8078 119.035 31.4627ZM88.0056 97.4662C88.9535 97.676 89.6759 97.7984 90.1726 97.8336C98.0143 98.3888 105.304 94.9289 112.043 87.4538C114.755 84.4363 117.056 81.1759 118.947 77.6724C120.873 74.1714 121.915 71.3032 122.075 69.0679C122.252 66.5842 121.17 65.2595 118.828 65.0936C114.783 64.8072 109.656 67.9389 103.447 74.4887C97.2403 81.003 92.0932 88.6622 88.0056 97.4662Z" fill="#00264C"/>
</svg>
